# xmcd CD database file
#
# Track frame offsets:
#	150
#	72117
#	166613
#
# Disc length: 4021 seconds
#
# Revision: 0
# Processed by: cddbd v1.5.2PL0 Copyright (c) Steve Scherf et al.
# Submitted via: CDex 1.51
#
DISCID=190fb303
DTITLE=Charlotte Mandrup - Mindfulness
DYEAR=2009
DGENRE=New Age
TTITLE0=Meditation 1
TTITLE1=Meditation 2
TTITLE2=Meditation 3
EXTD=YEAR: 2009
EXTT0=
EXTT1=
EXTT2=
PLAYORDER=
